<svg width="18" height="16" viewBox="0 0 18 16" fill="none" xmlns="http://www.w3.org/2000/svg">
<path fill-rule="evenodd" clip-rule="evenodd" d="M1 0C0.447715 0 0 0.459345 0 1.02598V12.2857C0 12.8524 0.447715 13.3117 1 13.3117H13L16 16H18C18 11.342 18 5.68398 18 1.02598C18 0.459345 17.5523 0 17 0H1ZM2 2.05195V11.2598C5.66667 11.2598 9.33333 11.2598 13 11.2598L16 14V2.05195H2Z" fill="#0066BD"/>
<path d="M6.5 6.71753C6.5 7.42582 5.94036 8 5.25 8C4.55964 8 4 7.42582 4 6.71753C4 6.00924 4.55964 5.43506 5.25 5.43506C5.94036 5.43506 6.5 6.00924 6.5 6.71753Z" fill="#0066BD"/>
<path d="M10 6.71753C10 7.42582 9.44036 8 8.75 8C8.05964 8 7.5 7.42582 7.5 6.71753C7.5 6.00924 8.05964 5.43506 8.75 5.43506C9.44036 5.43506 10 6.00924 10 6.71753Z" fill="#0066BD"/>
<path d="M13.5 6.71753C13.5 7.42582 12.9404 8 12.25 8C11.5596 8 11 7.42582 11 6.71753C11 6.00924 11.5596 5.43506 12.25 5.43506C12.9404 5.43506 13.5 6.00924 13.5 6.71753Z" fill="#0066BD"/>
</svg>
