<svg width="26" height="24" viewBox="0 0 26 24" fill="none" xmlns="http://www.w3.org/2000/svg">
<path fill-rule="evenodd" clip-rule="evenodd" d="M13.6656 15.4729C14.0868 15.7452 14.5139 15.9442 14.81 15.9442C15.6922 15.9442 15.9303 14.5083 16.6384 14.1015C17.4681 13.5891 19.2251 14.6326 19.8854 15.0684C20.2603 15.3158 20.589 15.6183 20.791 15.995C20.9953 16.3759 21.0626 16.8196 20.9356 17.3293C20.7237 18.3768 20.0791 19.037 19.1495 19.4582C18.3631 19.8325 17.667 20 17.0639 20C15.181 20 13.039 18.9067 11.5709 17.9222C10.741 17.3657 9.9217 16.6841 9.11271 15.8786C8.30373 15.0731 7.6192 14.2573 7.06026 13.4309C6.52379 12.6378 5.91477 11.5197 5.49913 10.3572C5.08577 9.20117 4.85215 7.96963 5.10431 6.96534C5.31568 6.12349 5.7149 5.3821 6.30286 4.84969C6.8933 4.31505 7.66474 4 8.59926 4C8.66621 4 8.72919 4.0169 8.7864 4.04539C9.39252 4.34714 9.84467 4.97457 10.1863 5.63315C10.5395 6.31402 11.0483 7.16766 11.0483 7.96041C11.0483 8.59154 10.5953 8.95498 10.1704 9.23409C9.80216 9.47604 9.32784 9.68945 9.09195 10.0809C9.01784 10.2039 9.07197 10.4119 9.17433 10.6158C9.49166 11.2477 9.90665 11.8753 10.3329 12.4561C10.6614 12.8813 11.006 13.2732 11.3665 13.6322C12.0567 14.3194 12.8473 14.9439 13.6656 15.4729Z" fill="#0066BD"/>
</svg>
