<?xml version="1.0" encoding="UTF-8"?>
<svg fill="none" viewBox="0 0 16 16" xmlns="http://www.w3.org/2000/svg">
    <path d="m8 16c-1.1019 0-2.1432-0.2094-3.124-0.6281-0.96969-0.4187-1.8182-0.9862-2.5454-1.7025-0.71625-0.7273-1.2838-1.5812-1.7025-2.562-0.41873-0.9697-0.6281-2.0055-0.6281-3.1074s0.20937-2.1432 0.6281-3.124c0.41873-0.96969 0.98623-1.8127 1.7025-2.5289 0.72727-0.72728 1.5758-1.3003 2.5454-1.719 0.98072-0.41873 2.022-0.6281 3.124-0.6281s2.1433 0.20937 3.124 0.6281c0.9697 0.41873 1.8126 0.99173 2.5289 1.719 0.7273 0.71625 1.3003 1.5592 1.719 2.5289 0.4187 0.98072 0.6281 2.022 0.6281 3.124s-0.2094 2.1377-0.6281 3.1074c-0.4187 0.9808-0.9917 1.8347-1.719 2.562-0.7163 0.7163-1.5592 1.2838-2.5289 1.7025-0.9807 0.4187-2.0221 0.6281-3.124 0.6281zm5.157-5.157c-0.011-0.0331-0.0496-0.0717-0.1157-0.1157-0.0661-0.0551-0.1598-0.1157-0.281-0.1818-0.1212-0.0772-0.2589-0.1543-0.4132-0.2315-0.1432-0.0881-0.303-0.1818-0.4793-0.2809l-0.529-0.28103c-0.022-0.01102-0.0495-0.02755-0.0826-0.04959s-0.0716-0.04959-0.1157-0.08265c-0.0441-0.03305-0.0882-0.0606-0.1322-0.08264-0.0441-0.03306-0.0827-0.0551-0.1157-0.06611-0.0331-0.02204-0.0717-0.03306-0.1157-0.03306-0.0331-0.01102-0.0662-0.01653-0.0992-0.01653-0.0551 0-0.1267 0.02755-0.2149 0.08264-0.0771 0.04408-0.1653 0.12121-0.2645 0.23141-0.0991 0.11019-0.1983 0.22038-0.29747 0.33056-0.08816 0.1102-0.18182 0.2204-0.281 0.3306-0.08815 0.1212-0.17079 0.2094-0.24793 0.2645-0.07713 0.0551-0.13774 0.0826-0.18182 0.0826h-0.09917c-0.02204-0.011-0.04959-0.022-0.08265-0.0331-0.03305-0.022-0.0606-0.0385-0.08264-0.0495-0.02204-0.0111-0.04408-0.0166-0.06612-0.0166-0.02203-0.011-0.04958-0.022-0.08264-0.033-0.02204-0.0221-0.04959-0.0441-0.08265-0.0661-0.04407-0.0221-0.07713-0.0386-0.09917-0.0496-0.02204-0.0221-0.03857-0.0331-0.04959-0.0331-0.33057-0.1873-0.63911-0.3857-0.92562-0.59503-0.2865-0.22039-0.55096-0.45179-0.79338-0.69422-0.24243-0.24242-0.47383-0.50688-0.69422-0.79338-0.20936-0.28651-0.40771-0.59505-0.59504-0.92562 0-0.01102-0.01102-0.02755-0.03306-0.04959-0.01102-0.02204-0.02755-0.0551-0.04958-0.09917-0.02204-0.03306-0.04408-0.06061-0.06612-0.08265-0.01102-0.03306-0.02204-0.06061-0.03306-0.08264l-0.03306-0.06612c-0.01101-0.03306-0.02203-0.06612-0.03305-0.09917-0.01102-0.03306-0.02204-0.06061-0.03306-0.08265v-0.08264c0-0.04408 0.01653-0.09367 0.04959-0.14876 0.03305-0.0551 0.08815-0.11571 0.16528-0.18182 0.06612-0.06612 0.13775-0.13223 0.21488-0.19835 0.07714-0.06611 0.15427-0.13223 0.23141-0.19835 0.08815-0.05509 0.16528-0.1157 0.2314-0.18181 0.07714-0.06612 0.15427-0.13774 0.23141-0.21488 0.06611-0.06612 0.1157-0.13223 0.14876-0.19835 0.03305-0.06611 0.04958-0.12121 0.04958-0.16529 0-0.03305-0.00551-0.06611-0.01653-0.09917 0-0.04408-0.01102-0.08264-0.03305-0.1157-0.01102-0.03306-0.03306-0.07163-0.06612-0.1157-0.02204-0.04408-0.04959-0.08816-0.08264-0.13224-0.03306-0.05509-0.06061-0.09366-0.08265-0.1157-0.02204-0.03306-0.03857-0.0606-0.04959-0.08264s-0.02754-0.0551-0.04958-0.09918c-0.02204-0.05509-0.0551-0.1157-0.09918-0.18181-0.04407-0.07714-0.08815-0.15427-0.13223-0.23141-0.03306-0.07713-0.07162-0.15427-0.1157-0.2314-0.04408-0.07714-0.08815-0.15427-0.13223-0.23141-0.04408-0.08815-0.09367-0.1708-0.14876-0.24793-0.04408-0.08816-0.08816-0.16529-0.13223-0.23141-0.03306-0.06611-0.07163-0.12672-0.11571-0.18182-0.03305-0.05509-0.06611-0.09366-0.09917-0.1157-0.02204-0.03306-0.04408-0.0551-0.06612-0.06611-0.02203-0.01102-0.04407-0.01653-0.06611-0.01653h-0.09917c-0.15427 0-0.31956 0.01653-0.49587 0.04958-0.16529 0.03306-0.3416 0.08816-0.52893 0.16529-0.15427 0.07714-0.29752 0.19284-0.42975 0.34711s-0.25344 0.35813-0.36364 0.61157c-0.12121 0.24242-0.20936 0.47383-0.26446 0.69421-0.0551 0.22039-0.08264 0.42976-0.08264 0.6281v0.16529c0 0.0551 0.00551 0.11571 0.01653 0.18182 0.01101 0.0551 0.02203 0.11019 0.03305 0.16529 0.01102 0.04408 0.01653 0.08816 0.01653 0.13223 0.01102 0.04408 0.02204 0.09367 0.03306 0.14876 0.02204 0.0551 0.04408 0.11571 0.06612 0.18182 0.02203 0.07714 0.03856 0.14325 0.04958 0.19835 0.02204 0.04408 0.03857 0.07713 0.04959 0.09917 0.01102 0.03306 0.02755 0.07714 0.04959 0.13223 0.02203 0.0551 0.04958 0.12672 0.08264 0.21488 0.02204 0.07713 0.04408 0.14325 0.06612 0.19835 0.02203 0.04407 0.03305 0.07713 0.03305 0.09917 0.20937 0.55096 0.49587 1.0964 0.85951 1.6364 0.36363 0.53995 0.80992 1.0744 1.3388 1.6033 0.52893 0.529 1.0634 0.9752 1.6033 1.3389 0.53994 0.3636 1.0854 0.6446 1.6364 0.843 0.02204 0.011 0.0551 0.0275 0.09917 0.0495 0.0551 0.0111 0.12122 0.0331 0.19835 0.0662 0.07714 0.033 0.14325 0.0606 0.19835 0.0826 0.06611 0.022 0.11019 0.0386 0.13223 0.0496 0.03306 0.011 0.07163 0.0275 0.1157 0.0496 0.0551 0.011 0.1157 0.0275 0.18182 0.0496 0.07714 0.022 0.14325 0.044 0.19835 0.0661 0.05509 0.011 0.10468 0.0165 0.1488 0.0165 0.033 0.011 0.0771 0.022 0.1322 0.0331l0.1653 0.033c0.0661 0 0.1267 0.0055 0.1818 0.0166h0.1653c0.1873 0 0.3912-0.0276 0.6116-0.0827 0.2203-0.0551 0.4573-0.1432 0.7107-0.2645 0.2424-0.1101 0.4408-0.2314 0.595-0.3636 0.1653-0.1432 0.2865-0.292 0.3637-0.4463 0.0661-0.1763 0.1157-0.3471 0.1487-0.5124 0.0441-0.1763 0.0662-0.3416 0.0662-0.4958 0-0.0441-0.0056-0.0772-0.0166-0.0992v-0.0661z" fill="#034074"/>
</svg>
