<svg width="14" height="14" viewBox="0 0 14 14" fill="none" xmlns="http://www.w3.org/2000/svg">
<path fill-rule="evenodd" clip-rule="evenodd" d="M10.5033 11.3339C10.9815 11.3339 11.4339 11.2383 11.8601 11.0469C12.2863 10.8556 12.6582 10.5936 12.9757 10.2608C13.2932 9.9281 13.5434 9.53843 13.726 9.09183C13.9087 8.64547 14 8.17133 14 7.6699C14 7.1596 13.9087 6.68103 13.726 6.23443C13.5434 5.79693 13.2932 5.41193 12.9757 5.0792C12.6582 4.74647 12.2863 4.48443 11.8601 4.2931C11.4339 4.10153 10.9815 4.00587 10.5033 4.00587C10.0161 4.00587 9.55925 4.10153 9.13329 4.2931C8.7069 4.48443 8.33739 4.74647 8.02431 5.0792C7.71102 5.41193 7.4588 5.79693 7.26743 6.23443C7.08488 6.68103 6.99339 7.1596 6.99339 7.6699C6.99339 8.17133 7.08488 8.64547 7.26743 9.09183C7.4588 9.53843 7.71102 9.9281 8.02431 10.2608C8.33739 10.5936 8.7069 10.8556 9.13329 11.0469C9.55925 11.2383 10.0161 11.3339 10.5033 11.3339ZM11.7445 6.06667L12.5601 6.88333L10.1349 9.68333L8.27213 7.9982L9.03253 7L10.1349 7.9982L11.7445 6.06667ZM9.53764 3.33597H10.8164V1.3398H8.27213V2.66607H9.53764V3.33597ZM3.18362 0.6699V1.99617H7.63276V0.6699H6.36724V0H4.44913V0.6699H3.18362ZM6.36724 4.00587H2.54425V4.66223H6.36724V4.00587ZM5.72787 9.99413H2.54425V10.664H5.72787V9.99413ZM2.54425 6.67193H5.72787V6.00203H2.54425V6.67193ZM5.72787 7.9982H2.54425V8.6681H5.72787V7.9982ZM1.27874 12.6602V2.66607H2.54425V1.3398H0V14H10.8164V12.0038H9.53764V12.6602H1.27874Z" fill="black"/>
</svg>
